<svg xmlns="http://www.w3.org/2000/svg" xmlns:xlink="http://www.w3.org/1999/xlink" width="550px" height="800px" viewBox="0 0 550 800">
  <style>
    .bubble { fill: #e9e9eb; }
    text {
      font-family: 'Inter', sans-serif;
      font-size: 18px;
      fill: #242424;
    }
    @media (prefers-color-scheme: dark) {
      .bubble { fill: #3b3b3d; }
      text { fill: #fafafa; }
    }
  </style>

  <!-- Message 1 -->
  <g class="bubble">
    <rect x="20" y="50" width="155" height="50" rx="18" ry="18"/>
    <text x="40" y="80">Hi, I'm Melisa!</text>
  </g>

  <!-- Message 2 -->
  <g class="bubble">
    <!-- y = 50 + 50 + 10 = 110 -->
    <rect x="20" y="110" width="415" height="75" rx="18" ry="18"/>
    <text x="40" y="140">I'm a Finance Specialist in Venture Capital,</text>
    <text x="40" y="170">exploring finance, accounting and technology.</text>
  </g>

  <!-- Message 3 -->
  <g class="bubble">
    <!-- y = 110 + 75 + 10 = 195 -->
    <rect x="20" y="195" width="380" height="75" rx="18" ry="18"/>
    <text x="40" y="225">Currently kicking off my Master’s Thesis</text>
    <text x="40" y="255">in financial accounting at HU Berlin.</text>
  </g>

  <!-- Message 4 -->
  <g class="bubble">
    <!-- y = 195 + 75 + 10 = 280 -->
    <rect x="20" y="280" width="510" height="50" rx="18" ry="18"/>
    <text x="40" y="310">I work in Python, R, Stata, ERPs and Pixelmator as hobby. 📸 </text>
  </g>

  <!-- Message 5 -->
  <g class="bubble">
    <rect x="20" y="344" width="458" height="285" rx="18" ry="18"/>
    <text x="40" y="370">Some of my latest academic projects:</text>
    <text x="40" y="400">- Audit market concentration in the EU</text>
    <text x="40" y="430">- Earnings management and investor protection</text>
    <text x="40" y="460">- P/B ratios and future residual income</text>
    <text x="40" y="490">- AI-Driven Hiring Delegation</text>
    <text x="40" y="520">- AI-Enhanced Satellite Imagery in Institutional</text>
    <text x="40" y="550">  Lending Decisions</text>
    <text x="40" y="580">Inspired by reproducibility and transparency</text>
    <text x="40" y="610">principles of TRR 266. 💻</text>
  </g>

  <!-- Message 6 -->
  <g class="bubble">
    <!-- y = 340 + 270 + 10 = 620 -->
    <rect x="20" y="640" width="435" height="47" rx="18" ry="18"/>
    <text x="40" y="669">Stay tuned — private repos will go public soon! 🤫</text>
  </g>
  
  <!-- Message 7 -->
  <g class="bubble">
    <rect x="20" y="690" width="310" height="50" rx="18" ry="18"/>
    <text x="40" y="719">Feel free to connect on LinkedIn!</text>
  </g>
</svg>
